<svg width="89" height="23" viewBox="0 0 89 23" fill="none" xmlns="http://www.w3.org/2000/svg">
  <path d="M74.7501 0H69.3834V23H74.7501V9.775L83.1834 23H88.5501V0H82.9918V13.0333L74.7501 0Z" fill="black"/>
  <path fill-rule="evenodd" clip-rule="evenodd" d="M33.1584 5.94177C30.9801 5.94177 29.3251 7.65184 29.3251 9.62603V13.3742C29.3251 15.3484 30.9801 17.0584 33.1584 17.0584H55.3917C57.5701 17.0584 59.2251 15.3484 59.2251 13.3742V9.62603C59.2251 7.65184 57.5701 5.94177 55.3917 5.94177H33.1584ZM23.5751 9.62603C23.5751 4.35507 27.9269 0.191772 33.1584 0.191772H55.3917C60.6232 0.191772 64.9751 4.35507 64.9751 9.62603V13.3742C64.9751 18.6451 60.6232 22.8084 55.3917 22.8084H33.1584C27.9269 22.8084 23.5751 18.6451 23.5751 13.3742V9.62603Z" fill="black"/>
  <path d="M5.55833 0H0V23H5.36667V12.2667L8.05 23H11.1167L13.8 12.2667V23H19.1667V0H13.6083L9.775 13.8L5.55833 0Z" fill="black"/>
</svg>
