<svg width="2560" height="512" viewBox="0 0 2560 512" fill="none" xmlns="http://www.w3.org/2000/svg">
  <rect width="2560" height="512" fill="#0A3B30"/>
  <path fill-rule="evenodd" clip-rule="evenodd" d="M1135 183.5C1106.59 183.5 1085 205.805 1085 231.556V280.444C1085 306.195 1106.59 328.5 1135 328.5H1425C1453.41 328.5 1475 306.195 1475 280.444V231.556C1475 205.805 1453.41 183.5 1425 183.5H1135ZM1010 231.556C1010 162.804 1066.76 108.5 1135 108.5H1425C1493.24 108.5 1550 162.804 1550 231.556V280.444C1550 349.196 1493.24 403.5 1425 403.5H1135C1066.76 403.5 1010 349.196 1010 280.444V231.556Z" fill="#66CB99" stroke="#559B79" stroke-width="4"/>
  <path d="M1323.5 462.676L1305.5 395.176L1319 390.676L1339.25 392.926L1343.75 455.926L1332.5 440.176L1323.5 462.676Z" fill="#EF4842" stroke="#A43231" stroke-width="3"/>
  <path d="M1267.25 455.926L1269.5 392.926L1285.25 383.926L1298.75 395.176L1289.75 449.176L1280.75 428.926L1267.25 455.926Z" fill="#EF4842" stroke="#A43231" stroke-width="3"/>
  <path d="M1265 334.426C1270.4 330.826 1286.75 350.926 1294.25 361.426L1285.25 383.926C1278.5 388.426 1262.75 397.426 1253.75 397.426C1244.75 397.426 1236.5 388.426 1233.5 383.926V363.676C1233.5 340.276 1254.5 334.426 1265 334.426Z" fill="#EF4842" stroke="#A43231" stroke-width="3"/>
  <path d="M1357.25 338.926L1319 363.676V392.926L1373 395.176C1385.6 360.976 1368.5 344.176 1357.25 338.926Z" fill="#EF4842" stroke="#A43231" stroke-width="3"/>
  <path d="M1323.5 370.426L1348.25 359.176M1325.75 379.426L1361.75 381.676" stroke="#A43231" stroke-width="3"/>
  <line x1="1287.5" y1="376.426" x2="1256" y2="376.426" stroke="#A43231" stroke-width="3"/>
  <line x1="1291.06" y1="371.597" x2="1268.56" y2="353.597" stroke="#A43231" stroke-width="3"/>
  <path d="M1326.5 377.176C1326.5 387.386 1317.25 395.926 1305.5 395.926C1293.75 395.926 1284.5 387.386 1284.5 377.176C1284.5 366.965 1293.75 358.426 1305.5 358.426C1317.25 358.426 1326.5 366.965 1326.5 377.176Z" fill="#F04848" stroke="#A43231" stroke-width="3"/>
  <circle cx="1256" cy="161.5" r="8.7" fill="#FF2433" stroke="#D75C54" stroke-width="0.6"/>
  <circle cx="1253.75" cy="136.75" r="10.95" fill="#FF2433" stroke="#D75C54" stroke-width="0.6"/>
  <circle cx="1276.25" cy="141.25" r="6.45" fill="#FF2433" stroke="#D75C54" stroke-width="0.6"/>
  <path d="M1207.06 363.355C1211.85 363.841 1215.33 368.111 1214.84 372.891C1214.35 377.672 1210.08 381.152 1205.3 380.665C1200.52 380.178 1197.04 375.908 1197.53 371.128C1198.01 366.348 1202.28 362.868 1207.06 363.355Z" fill="#FF2433" stroke="#D75C54" stroke-width="0.6"/>
  <path d="M1182.44 360.846C1188.46 361.459 1192.84 366.833 1192.23 372.849C1191.61 378.866 1186.24 383.246 1180.22 382.633C1174.21 382.02 1169.83 376.646 1170.44 370.63C1171.05 364.613 1176.43 360.233 1182.44 360.846Z" fill="#FF2433" stroke="#D75C54" stroke-width="0.6"/>
  <path d="M1188.74 343.395C1192.29 343.756 1194.87 346.921 1194.51 350.465C1194.15 354.009 1190.98 356.589 1187.44 356.228C1183.89 355.867 1181.31 352.702 1181.67 349.158C1182.03 345.614 1185.2 343.034 1188.74 343.395Z" fill="#FF2433" stroke="#D75C54" stroke-width="0.6"/>
  <path d="M1064.56 232.855C1069.35 233.341 1072.83 237.611 1072.34 242.391C1071.85 247.172 1067.58 250.652 1062.8 250.165C1058.02 249.678 1054.54 245.408 1055.03 240.628C1055.51 235.848 1059.78 232.368 1064.56 232.855Z" fill="#FF2433" stroke="#D75C54" stroke-width="0.6"/>
  <path d="M1039.94 230.346C1045.96 230.959 1050.34 236.333 1049.73 242.349C1049.11 248.366 1043.74 252.746 1037.72 252.133C1031.71 251.52 1027.33 246.146 1027.94 240.13C1028.55 234.113 1033.93 229.733 1039.94 230.346Z" fill="#FF2433" stroke="#D75C54" stroke-width="0.6"/>
  <circle cx="1045.59" cy="219.312" r="6.45" transform="rotate(-84.1833 1045.59 219.312)" fill="#FF2433" stroke="#D75C54" stroke-width="0.6"/>
  <path d="M1509.84 221.765C1505.19 225.629 1498.28 224.991 1494.42 220.34C1490.56 215.688 1491.19 208.785 1495.85 204.92C1500.5 201.055 1507.4 201.693 1511.27 206.345C1515.13 210.997 1514.49 217.9 1509.84 221.765Z" fill="#FF2433" stroke="#D75C54" stroke-width="0.6"/>
  <path d="M1517.88 238.486C1515.14 240.762 1511.07 240.386 1508.8 237.646C1506.52 234.906 1506.9 230.84 1509.64 228.563C1512.38 226.287 1516.44 226.663 1518.72 229.403C1521 232.143 1520.62 236.209 1517.88 238.486Z" fill="#FF2433" stroke="#D75C54" stroke-width="0.6"/>
  <path d="M1445 361.75H1456.25L1460.75 350.5" stroke="#559B79" stroke-width="3"/>
  <path d="M1428.5 157L1437.5 168.25L1444.25 154.75L1451 170.5L1469 143.5" stroke="#559B79" stroke-width="3"/>
  <path d="M1491.5 286L1493.75 306.25L1500.5 297.25L1507.25 306.25L1511.75 317.5L1534.25 281.5" stroke="#559B79" stroke-width="3"/>
  <path d="M1121.75 143.5L1119.5 163.75L1112.75 154.75L1106 163.75L1101.5 175L1079 139" stroke="#559B79" stroke-width="3"/>
  <path d="M1086.5 375.25L1095.5 386.5L1104.5 370.75L1111.25 386.5L1118 373L1124.75 379.75L1138.25 341.5" stroke="#559B79" stroke-width="3"/>
</svg>
